<svg xmlns="http://www.w3.org/2000/svg"
     width="0.183333in" height="0.183333in"
     viewBox="0 0 55 55">
  <path id="d"
        fill="#de328e" stroke="black" stroke-width="1"
        d="M 20.00,14.00
           C 20.00,14.00 20.00,20.00 20.00,20.00
             20.00,20.00 7.00,20.00 7.00,20.00
             4.86,20.04 1.62,19.87 0.66,22.30
             -0.42,24.98 1.72,26.46 4.06,26.93
             4.06,26.93 20.00,26.93 20.00,26.93
             20.00,26.93 20.00,30.00 20.00,30.00
             16.84,30.00 6.99,28.95 5.66,32.30
             3.14,38.61 16.94,37.00 20.00,37.00
             20.00,37.00 20.00,41.00 20.00,41.00
             16.86,41.00 2.09,39.27 4.66,45.70
             5.62,48.13 8.86,47.96 11.00,48.00
             11.00,48.00 36.00,48.00 36.00,48.00
             40.50,47.99 44.08,48.22 47.91,45.35
             56.91,38.60 57.22,19.10 49.66,11.21
             48.06,9.54 46.21,8.34 44.00,7.65
             40.39,6.51 21.14,6.99 16.00,7.00
             14.29,7.00 10.79,6.87 9.31,7.60
             6.78,8.85 6.78,12.15 9.31,13.40
             11.06,14.26 17.73,14.00 20.00,14.00 Z
           M 29.00,41.00
           C 29.00,41.00 29.00,14.00 29.00,14.00
             32.74,14.49 39.92,14.77 42.49,17.43
             46.31,21.40 46.21,34.92 41.77,38.41
             38.99,40.60 32.50,40.92 29.00,41.00 Z" />
</svg>